<svg height="511pt" viewBox="0 -3 511.99995 511" width="511pt" xmlns="http://www.w3.org/2000/svg"><path d="m501.542969 254.332031-70.863281 12.5c-.839844 12.761719-3.050782 25.148438-6.488282 37.023438l62.28125 35.957031c6.050782 3.492188 8.125 11.234375 4.632813 17.277344l-29.230469 50.632812c-3.492188 6.042969-11.234375 8.117188-17.277344 4.621094l-62.324218-35.976562c-8.683594 9.039062-18.324219 17.15625-28.773438 24.171874l24.609375 67.597657c2.382813 6.574219-.996094 13.828125-7.566406 16.222656l-54.925781 19.992187c-6.570313 2.386719-13.824219-1.003906-16.21875-7.566406l-24.605469-67.609375c-6.179688.664063-12.4375 1.007813-18.792969 1.007813s-12.605469-.34375-18.78125-1.007813h-.011719l-24.605469 67.609375c-2.394531 6.5625-9.648437 9.953125-16.21875 7.566406l-54.925781-19.992187c-6.570312-2.394531-9.949219-9.648437-7.566406-16.222656l24.609375-67.597657c-10.449219-7.015624-20.089844-15.132812-28.773438-24.171874l-62.324218 35.976562c-6.042969 3.496094-13.785156 1.421875-17.277344-4.621094l-29.230469-50.632812c-3.492187-6.042969-1.417969-13.785156 4.632813-17.277344l62.28125-35.957031c-3.4375-11.875-5.648438-24.261719-6.488282-37.023438l-70.863281-12.5c-6.882812-1.210937-11.484375-7.773437-10.261719-14.652343l10.148438-57.566407c1.214844-6.882812 7.773438-11.476562 14.65625-10.261719l70.824219 12.488282c5.117187-11.554688 11.441406-22.460938 18.820312-32.535156l-46.246093-55.121094c-4.488282-5.355469-3.792969-13.335938 1.554687-17.824219l44.785156-37.574219c5.347657-4.496094 13.328125-3.792968 17.828125 1.554688l46.226563 55.097656c.464843-.226562.933593-.453125 1.410156-.683594 10.746094-5.171875 22.097656-9.265625 33.914063-12.175781v-71.921875c0-6.988281 5.667968-12.65625 12.652343-12.65625h58.460938c6.984375 0 12.652343 5.667969 12.652343 12.65625v71.921875c12.335938 3.035156 24.160157 7.367187 35.324219 12.859375l46.226563-55.097656c4.5-5.347656 12.480468-6.050782 17.828125-1.554688l44.785156 37.574219c5.347656 4.488281 6.042969 12.46875 1.554687 17.824219l-46.246093 55.121094c7.378906 10.074218 13.703125 20.980468 18.820312 32.535156l70.824219-12.488282c6.882812-1.214843 13.441406 3.378907 14.65625 10.261719l10.148438 57.566407c1.222656 6.878906-3.378907 13.441406-10.261719 14.652343zm0 0" fill="#4172cc"/><path d="m501.542969 254.332031-70.863281 12.5c-.839844 12.761719-3.050782 25.148438-6.488282 37.023438l62.28125 35.957031c6.050782 3.492188 8.125 11.234375 4.632813 17.277344l-29.230469 50.632812c-3.492188 6.042969-11.234375 8.117188-17.277344 4.621094l-62.324218-35.976562c-8.683594 9.039062-18.324219 17.15625-28.773438 24.171874l24.609375 67.597657c2.382813 6.574219-.996094 13.828125-7.566406 16.222656l-54.925781 19.992187c-6.570313 2.386719-13.824219-1.003906-16.21875-7.566406l-24.605469-67.609375c-6.179688.664063-12.4375 1.007813-18.792969 1.007813s-12.605469-.34375-18.78125-1.007813c-40.339844-64.414062-64.851562-149.261719-64.851562-242.222656 0-30.949219 2.714843-61.007813 7.835937-89.699219 10.746094-5.171875 22.097656-9.265625 33.914063-12.175781v-71.921875c0-6.988281 5.667968-12.65625 12.652343-12.65625h58.460938c6.984375 0 12.652343 5.667969 12.652343 12.65625v71.921875c12.335938 3.035156 24.160157 7.367187 35.324219 12.859375l46.226563-55.097656c4.5-5.347656 12.480468-6.050782 17.828125-1.554688l44.785156 37.574219c5.347656 4.488281 6.042969 12.46875 1.554687 17.824219l-46.246093 55.121094c7.378906 10.074218 13.703125 20.980468 18.820312 32.535156l70.824219-12.488282c6.882812-1.214843 13.441406 3.378907 14.65625 10.261719l10.148438 57.566407c1.222656 6.878906-3.378907 13.441406-10.261719 14.652343zm0 0" fill="#6990d7"/><path d="m393.785156 252.808594c0 76.097656-61.691406 137.785156-137.785156 137.785156s-137.785156-61.6875-137.785156-137.785156c0-76.09375 61.691406-137.78125 137.785156-137.78125s137.785156 61.6875 137.785156 137.78125zm0 0" fill="#2e5aac"/><path d="m212.945312 383.726562c-55.007812-18.074218-94.722656-69.859374-94.722656-130.917968 0-45.519532 22.066406-85.882813 56.09375-110.964844-1.296875 14.792969-1.949218 29.839844-1.949218 45.109375 0 .902344 0 1.792969.007812 2.695313.269531 53.035156 8.523438 103.386718 23.136719 148.742187 5.058593 15.746094 10.894531 30.886719 17.433593 45.335937zm0 0" fill="#203e76"/><path d="m360.796875 252.808594c0 57.878906-46.921875 104.796875-104.796875 104.796875s-104.796875-46.917969-104.796875-104.796875c0-57.875 46.921875-104.792969 104.796875-104.792969s104.796875 46.917969 104.796875 104.792969zm0 0" fill="#6990d7"/><path d="m294.867188 219.820312c0 14.5625-8.011719 27.246094-19.867188 33.902344v51.949219c0 5.128906-2.03125 9.792969-5.347656 13.203125-3.453125 3.574219-8.292969 5.792969-13.652344 5.792969-10.5 0-19-8.496094-19-18.996094v-51.949219c-11.855469-6.65625-19.867188-19.339844-19.867188-33.902344 0-21.46875 17.402344-38.871093 38.867188-38.871093 4.808594 0 9.402344.871093 13.652344 2.46875 14.726562 5.523437 25.214844 19.734375 25.214844 36.402343zm0 0" fill="#19305c"/><path d="m294.867188 219.820312c0 14.5625-8.011719 27.246094-19.867188 33.902344v51.949219c0 5.128906-2.03125 9.792969-5.347656 13.203125-3.328125-3.410156-5.359375-8.074219-5.359375-13.203125v-51.949219c-11.859375-6.65625-19.871094-19.339844-19.871094-33.902344 0-16.667968 10.488281-30.878906 25.230469-36.402343 14.726562 5.523437 25.214844 19.734375 25.214844 36.402343zm0 0" fill="#203e76"/><path d="m195.511719 338.390625c-4.777344-3.367187-9.328125-7.203125-13.609375-11.484375-37.457032-37.445312-40.640625-96.203125-9.527344-137.257812.269531 53.035156 8.523438 103.386718 23.136719 148.742187zm0 0" fill="#4172cc"/></svg>